# xmcd
#
# Track frame offsets:
#	182
#	19092
#	38025
#	61365
#	76727
#	94275
#	113547
#	135445
#	151047
#	169852
#	186577
#	204880
#	220652
#	237582
#	257040
#	278900
#
# Disc length: 4021 seconds
#
# Revision: 2
# Processed by: cddbd v1.5.2PL0 Copyright (c) Steve Scherf et al.
# Submitted via: EZCDAudioConverter 6.0.5.1
#
DISCID=d20fb310
DTITLE=Kenny Rogers - The Very Best of Kenny Rogers
DYEAR=1997
DGENRE=Country
TTITLE0=Islands in the Stream
TTITLE1=Buried Treasure
TTITLE2=I Prefer the Moonlight
TTITLE3=The Factory
TTITLE4=If I Knew Then What I Know Now
TTITLE5=When I fall In Love
TTITLE6=My funny Valentine
TTITLE7=You Are So Beautiful
TTITLE8=Morning Desire
TTITLE9=Crazy
TTITLE10=Tomb of the Unknown Love
TTITLE11=The Vows Go Unbroken (Always True to You)
TTITLE12=Twenty Years Ago
TTITLE13=Crazy In Love
TTITLE14=Planet Texas
TTITLE15=My Romance
EXTD=
EXTT0=
EXTT1=
EXTT2=
EXTT3=
EXTT4=
EXTT5=
EXTT6=
EXTT7=
EXTT8=
EXTT9=
EXTT10=
EXTT11=
EXTT12=
EXTT13=
EXTT14=
EXTT15=
PLAYORDER=
